<?xml version="1.0" ?><svg enable-background="new 0 0 512 512" height="512px" id="svg2" version="1.1" viewBox="0 0 512 512" width="512px" xml:space="preserve" xmlns="http://www.w3.org/2000/svg" xmlns:cc="http://creativecommons.org/ns#" xmlns:dc="http://purl.org/dc/elements/1.1/" xmlns:inkscape="http://www.inkscape.org/namespaces/inkscape" xmlns:rdf="http://www.w3.org/1999/02/22-rdf-syntax-ns#" xmlns:sodipodi="http://sodipodi.sourceforge.net/DTD/sodipodi-0.dtd" xmlns:svg="http://www.w3.org/2000/svg"><defs id="defs6"><linearGradient gradientUnits="userSpaceOnUse" id="linearGradient3077" x1="310.02731" x2="310.02731" y1="87.538597" y2="28.008301"><stop id="stop3079" offset="0" style="stop-color:#343434"/><stop id="stop3081" offset="1" style="stop-color:#636363"/></linearGradient><linearGradient gradientUnits="userSpaceOnUse" id="linearGradient3084" x1="423.83591" x2="423.83591" y1="176.8345" y2="99.794899"><stop id="stop3086" offset="0" style="stop-color:#343434"/><stop id="stop3088" offset="1" style="stop-color:#636363"/></linearGradient><linearGradient gradientUnits="userSpaceOnUse" id="linearGradient3091" x1="467.60941" x2="467.60941" y1="325.6611" y2="245.1201"><stop id="stop3093" offset="0" style="stop-color:#343434"/><stop id="stop3095" offset="1" style="stop-color:#636363"/></linearGradient><linearGradient gradientUnits="userSpaceOnUse" id="linearGradient3098" x1="395.8223" x2="395.8223" y1="446.47269" y2="355.42679"><stop id="stop3100" offset="0" style="stop-color:#343434"/><stop id="stop3102" offset="1" style="stop-color:#636363"/></linearGradient><linearGradient gradientUnits="userSpaceOnUse" id="linearGradient3105" x1="268.00589" x2="268.00589" y1="499" y2="397.44821"><stop id="stop3107" offset="0" style="stop-color:#343434"/><stop id="stop3109" offset="1" style="stop-color:#636363"/></linearGradient><linearGradient gradientUnits="userSpaceOnUse" id="linearGradient3112" x1="131.436" x2="131.436" y1="458.72949" y2="336.16599"><stop id="stop3114" offset="0" style="stop-color:#343434"/><stop id="stop3116" offset="1" style="stop-color:#636363"/></linearGradient><linearGradient gradientUnits="userSpaceOnUse" id="linearGradient3119" x1="73.6567" x2="73.6567" y1="316.90631" y2="176.83501"><stop id="stop3121" offset="0" style="stop-color:#343434"/><stop id="stop3123" offset="1" style="stop-color:#636363"/></linearGradient><linearGradient gradientUnits="userSpaceOnUse" id="linearGradient3126" x1="147.1938" x2="147.1938" y1="173.33299" y2="12.25"><stop id="stop3128" offset="0" style="stop-color:#343434"/><stop id="stop3130" offset="1" style="stop-color:#636363"/></linearGradient></defs><g id="g10190" style="fill:#000000;fill-opacity:1" transform="matrix(1.2677964,-0.73196261,0.73196261,1.2677964,-3170.3582,-21627.241)"><path d="m -5567.6562,14020.719 c -30.1732,33.732 -46.2826,79.769 -40.5626,128.25 10.582,89.687 91.8758,153.801 181.5626,143.219 l 12.125,-1.876 c 83.9696,-16.37 141.118,-94.694 131.0937,-179.656 -4.1026,-34.771 -18.837,-65.709 -40.5625,-89.937 l -42.2812,42.312 c -1.9235,-2.286 -3.942,-4.535 -6.0938,-6.687 -40.5584,-40.559 -106.3166,-40.559 -146.875,0 l -5.5625,7.218 -42.8437,-42.843 z m 121.8437,25.656 c 21.3481,0 42.6807,8.149 58.9687,24.437 32.5762,32.577 32.5762,85.393 0,117.969 -32.5761,32.576 -85.3925,32.576 -117.9687,0 -26.6967,-26.696 -32.1274,-67.991 -13.25,-100.687 l 13.25,-17.282 c 16.2881,-16.288 37.6519,-24.437 59,-24.437 z" id="path10034" style="fill:#000000;fill-opacity:1;fill-rule:nonzero;stroke:none"/><path d="m -5445.8125,13943.625 c -47.6445,0 -95.3047,18.18 -131.6563,54.531 l 51.8438,51.844 c 17.3143,-17.345 40.3684,-29.187 66.5938,-32.281 4.836,-0.57 9.6302,-0.856 14.375,-0.813 30.266,0.272 58.2317,12.72 78.625,33.094 l 51.8437,-51.844 c -36.3516,-36.351 -83.9805,-54.531 -131.625,-54.531 z" id="path10104" style="fill:#000000;fill-opacity:1;fill-rule:nonzero;stroke:none"/><path d="m -5446.9592,14054.67 c -2.5384,0.05 -5.0885,0.219 -7.6639,0.523 -41.2074,4.861 -70.6672,42.19 -65.8054,83.397 4.862,41.207 42.1901,70.667 83.3976,65.806 l 5.5737,-0.872 c 38.5806,-7.521 64.8372,-43.491 60.2315,-82.526 -4.558,-38.632 -37.6588,-66.947 -75.7335,-66.328 z m 0.9406,13.69 c 6.3998,-0.1 11.949,4.654 12.7152,11.148 0.7741,6.561 -3.6177,12.599 -10.1026,13.865 l -0.9405,0.174 c -6.9262,0.817 -13.2217,-4.151 -14.0389,-11.078 -0.8173,-6.925 4.1515,-13.219 11.0778,-14.038 0.4328,-0.06 0.8623,-0.07 1.289,-0.07 z m -46.2972,33.722 c 0.8392,0 1.6882,0.08 2.5431,0.244 6.4794,1.291 10.8693,7.376 10.0676,13.934 l -0.1393,0.906 c -1.3631,6.841 -8.0354,11.29 -14.8751,9.928 -6.8397,-1.363 -11.2565,-8 -9.8934,-14.84 1.1927,-5.985 6.4236,-10.142 12.2971,-10.172 z m 92.4898,0 c 4.9185,-0.155 9.6908,2.599 11.879,7.35 2.9175,6.334 0.134,13.839 -6.2007,16.756 -6.0011,2.764 -13.0971,0.447 -16.3033,-5.329 l -0.4529,-0.871 c -2.9175,-6.334 -0.134,-13.839 6.2008,-16.756 1.5836,-0.73 3.2374,-1.099 4.8771,-1.15 z m -46.332,5.052 c 11.4752,-0.188 21.4439,8.351 22.8176,19.995 1.3882,11.765 -6.5219,22.606 -18.1496,24.874 l -1.6721,0.278 c -12.4192,1.465 -23.6863,-7.403 -25.1516,-19.822 -1.4654,-12.42 7.4024,-23.687 19.8217,-25.151 0.7762,-0.09 1.569,-0.162 2.334,-0.174 z m -28.8442,49.536 c 1.9402,-0.08 3.9458,0.278 5.8175,1.149 l 0.8361,0.453 c 6.0839,3.41 8.2521,11.092 4.8423,17.175 -3.4101,6.085 -11.0905,8.252 -17.1742,4.841 -6.0838,-3.409 -8.2523,-11.089 -4.8422,-17.174 2.2208,-3.961 6.2521,-6.285 10.5205,-6.444 z m 57.1311,0 c 3.6333,-0.203 7.3361,1.159 9.9979,4.041 4.7323,5.122 4.4263,13.104 -0.6967,17.836 -5.123,4.732 -13.1386,4.426 -17.8709,-0.697 -4.483,-4.853 -4.468,-12.339 0.035,-17.174 l 0.6967,-0.662 c 2.2413,-2.07 5.0124,-3.187 7.8382,-3.344 z" id="path10188" style="fill:#000000;fill-opacity:1;fill-rule:nonzero;stroke:none"/></g></svg>