<?xml version="1.0" ?><svg height="512" id="svg2" version="1.1" width="512" xmlns="http://www.w3.org/2000/svg" xmlns:cc="http://creativecommons.org/ns#" xmlns:dc="http://purl.org/dc/elements/1.1/" xmlns:inkscape="http://www.inkscape.org/namespaces/inkscape" xmlns:rdf="http://www.w3.org/1999/02/22-rdf-syntax-ns#" xmlns:sodipodi="http://sodipodi.sourceforge.net/DTD/sodipodi-0.dtd" xmlns:svg="http://www.w3.org/2000/svg"><defs id="defs4"/><g id="layer1" transform="translate(0,-540.36218)"><g id="g3997" transform="translate(26.404952,566.16026)"><path d="M 231.02362,0.03543307 C 103.42913,0.03543307 0,103.6063 0,231.23623 0,358.83073 103.42913,462.0827 231.02362,462.0827 c 127.59449,0 231.02362,-103.25197 231.02362,-230.84647 0,-127.62993 -103.42913,-231.20079693 -231.02362,-231.20079693 z m 0,81.95669793 c 82.34646,0 149.24409,66.897639 149.24409,149.244099 0,82.31103 -66.89763,148.85434 -149.24409,148.85434 -82.31102,0 -149.031495,-66.54331 -149.031495,-148.85434 0,-82.34646 66.720475,-149.244099 149.031495,-149.244099 z m 0,8.149606 c -77.77559,0 -140.917322,63.283473 -140.917322,141.094493 0,77.7756 63.141732,140.74017 140.917322,140.74017 77.81102,0 141.09449,-62.96457 141.09449,-140.74017 0,-77.81102 -63.28347,-141.094493 -141.09449,-141.094493 z m 7.12205,26.397643 c 18.38976,1.13385 35.43307,6.66141 50.45669,15.41338 0.60236,1.94882 0.77953,4.03937 0.17716,6.09449 -0.38976,1.38189 -1.02755,2.37402 -1.84252,3.40158 -9.24803,10.84252 -18.63779,21.57874 -27.95669,32.35039 -2.58661,3.43701 -6.98031,4.99607 -11.33858,3.72047 -4.3937,-1.27559 -7.29921,-5.03149 -7.61811,-9.31889 -2.09055,-13.9252 -4.2874,-28.20473 -6.27165,-41.98819 -0.14174,-1.34646 -0.0709,-2.72835 0.31889,-4.07481 0.70866,-2.44488 2.19685,-4.25197 4.07481,-5.59842 z m -20.16142,0.53149 c 1.80709,1.16929 3.22441,2.87008 4.0748,5.06693 0.49607,1.31103 0.8504,2.58662 0.8504,3.89764 l 0,0.17717 c -0.8504,13.92519 -1.80709,28.24015 -2.72835,42.34252 0.0354,4.2874 -2.51575,8.18504 -6.76772,9.81496 -4.25196,1.66535 -8.82283,0.49606 -11.69291,-2.69291 -10.02756,-9.77953 -20.83465,-19.91339 -30.47244,-29.65749 -0.92126,-0.95669 -1.87795,-1.87795 -2.37402,-3.22441 -1.09842,-2.79921 -0.85039,-5.77559 0.3189,-8.29134 0.0354,-0.0354 0,-0.10629 0,-0.17716 14.38583,-9.2126 31.00394,-15.23622 48.79134,-17.25591 z m 86.88189,26.25591 0.17716,0 c 13.25197,11.16142 23.88189,25.26378 31.00394,41.31496 -0.35433,2.90551 -1.77165,5.63386 -4.3937,7.44095 -2.05512,1.45275 -4.03937,1.45275 -6.27165,1.87795 l -39.29528,7.12205 c -4.1811,1.02756 -8.5748,-0.49606 -11.19685,-4.25197 -2.58661,-3.75591 -2.58661,-8.4685 -0.14173,-12.01181 7.08661,-12.15355 14.77559,-24.66142 21.50787,-36.77953 0.70866,-1.09843 1.52362,-2.05512 2.69292,-2.87008 1.80708,-1.24016 3.89763,-1.80709 5.91732,-1.84252 z m -151.22835,3.04724 c 0.0354,-0.0709 0.14174,0.0354 0.14174,0 l 0.70866,0 c 2.01968,0.0354 4.11023,0.60237 5.91732,1.84252 1.16929,0.81496 1.98425,1.77166 2.69291,2.90552 7.22835,11.90551 14.38583,24.51968 21.50788,36.74409 2.44488,3.54331 2.44488,8.29134 -0.14174,12.01181 -2.62204,3.75591 -7.01574,5.27953 -11.19685,4.25197 -13.81889,-2.48031 -28.13385,-5.24409 -41.84645,-7.47638 -1.27559,-0.28346 -2.55118,-0.70866 -3.72047,-1.52362 -1.80709,-1.24016 -3.15355,-3.01181 -3.89764,-4.88976 6.44882,-16.86614 16.75984,-31.74804 29.83464,-43.68898 l 0,-0.17717 z m 77.38583,51.66142 c 18.24803,0 33.02362,14.7756 33.02362,33.02363 0,18.24803 -14.77559,33.20079 -33.02362,33.20079 -18.24803,0 -33.20079,-14.95276 -33.20079,-33.20079 0,-18.24803 14.95276,-33.02363 33.20079,-33.02363 z m -110.58661,2.69292 c -4.00394,-3.04725 -5.06693,6.94488 -1.87796,8.29134 1.87796,-1.91339 4.5,-3.18898 7.44095,-3.18898 1.41732,0 2.69291,0.49606 3.89764,0.99213 12.6496,5.63385 25.97244,11.69291 38.79921,17.4685 4.00394,1.48819 6.76772,5.42126 6.76772,9.99213 -0.0354,4.46456 -2.62205,8.4685 -6.59056,9.99212 -12.79133,5.95276 -26.11417,11.83465 -38.62204,17.92914 -1.24016,0.49606 -2.48032,0.85039 -3.89764,0.85039 -2.19685,0 -4.21654,-0.70866 -5.91732,-1.84252 -2.97638,-0.2126 2.26771,19.48819 6.09448,16.93701 0.56693,-2.30315 1.80709,-4.57086 3.89764,-6.09449 1.13386,-0.85039 2.44488,-1.20472 3.72047,-1.52362 13.42914,-3.04724 27.7441,-6.02362 41.49213,-9 1.02756,-0.28346 2.16142,-0.2126 3.22441,-0.14173 3.11811,0.0709 6.09449,1.62992 8.11417,4.3937 2.72835,3.64961 2.83465,8.39764 0.5315,12.01181 -6.76772,12.43701 -13.57087,24.83858 -20.33858,37.27559 -0.67323,1.13386 -1.55906,2.37402 -2.69292,3.22441 -1.73622,1.27559 -3.79134,1.91339 -5.77559,2.01969 -25.90157,-21.04725 -42.51968,-53.11418 -42.51968,-89.07875 0,-10.59449 1.55905,-20.76378 4.25197,-30.50787 z m 215.92913,0.53149 c 2.37401,0 4.3937,0.88583 6.12992,2.19685 2.19685,8.85827 3.36614,18.03544 3.36614,27.60237 0,8.64567 -0.88583,17.14961 -2.69291,25.22835 -1.77166,1.38189 -4.00394,2.19685 -6.44882,2.19685 -1.41732,0 -2.65748,-0.5315 -3.89764,-0.99213 -0.0354,0 -1.66535,-0.74409 -2.37401,-1.02756 l -36.4252,-16.44094 c -4.00394,-1.48819 -6.73228,-5.42126 -6.76772,-9.99213 0,-4.57087 2.79921,-8.43307 6.76772,-9.99213 13.32283,-6.34252 38.48031,-17.92913 38.48031,-17.96457 1.20473,-0.49606 2.48032,-0.81496 3.86221,-0.81496 z m -105.34252,4.03937 c -14.27953,0 -25.90157,11.44489 -25.90157,25.75985 0,14.31496 11.62204,25.90157 25.90157,25.90157 14.31496,0 25.93701,-11.58661 25.93701,-25.90157 0,-14.31496 -11.62205,-25.75985 -25.93701,-25.75985 z m 54.53149,54.03544 c 1.063,-0.0709 2.01969,0.1063 3.04725,0.35433 l 39.47244,6.62599 c 0,0 2.72835,0.46063 2.72835,0.46063 1.27559,0.28346 2.55118,0.74409 3.72047,1.52362 1.70079,1.20472 2.79921,2.83464 3.54331,4.57086 -6.69685,17.18504 -17.57481,32.2441 -31.14567,44.22048 -1.62992,-0.2126 -3.29528,-0.67323 -4.74803,-1.70079 -1.41733,-0.95669 -2.83465,-3.18898 -4.07481,-5.24409 l -20.65748,-34.19292 c -2.44488,-3.54331 -2.40945,-8.29134 0.17717,-12.04724 1.91338,-2.76378 4.85433,-4.35827 7.937,-4.57087 z m -32.35039,24.41339 c 3.22441,-0.14174 6.23622,1.27559 8.32677,3.72047 l 27.77953,28.62992 c 0,0 1.31102,1.41733 1.84252,2.01969 0.88583,0.99212 1.55906,1.87795 2.05512,3.22441 0.67323,1.94882 0.74409,4.03937 0.3189,5.91732 -14.84646,9.67323 -31.9252,16.22835 -50.4567,18.1063 l -0.17716,0 c -1.52362,-1.20472 -2.69292,-2.90551 -3.40158,-4.88976 -0.46063,-1.34646 -0.56693,-2.58662 -0.49606,-3.89764 -0.0354,-0.88583 0.1063,-1.84252 0.17717,-2.55118 l 3.5433,-39.96851 c 0.1063,-4.2874 2.79922,-7.93701 7.12205,-9.49606 1.06299,-0.35433 2.30315,-0.77953 3.36614,-0.81496 z m -39.79134,0.14173 c 1.063,0 2.12599,0.3189 3.22441,0.67323 4.32284,1.41732 7.26378,5.20866 7.44095,9.49606 l 4.42913,39.79134 c 0.38977,2.62205 0.35433,5.49213 0,6.62599 -0.74409,2.23228 -2.16142,4.00393 -3.89764,5.24409 -17.82283,-0.99212 -34.54724,-6.02362 -49.2874,-14.24409 -0.0354,-0.0354 0,-0.1063 0,-0.14174 -1.55905,-2.55118 -2.05512,-5.56299 -1.02756,-8.64567 0.4252,-1.34645 0.99213,-2.55118 1.84252,-3.5433 9.8504,-10.31103 19.34646,-20.87008 28.98426,-31.35827 2.01968,-2.48032 5.06692,-3.93307 8.29133,-3.89764 z" id="path3999" style="fill:#000000;fill-opacity:1;fill-rule:nonzero;stroke:none"/></g></g></svg>