<?xml version="1.0" encoding="utf-8"?>
<!-- Generator: Adobe Illustrator 28.1.0, SVG Export Plug-In . SVG Version: 6.00 Build 0)  -->
<svg version="1.1" id="Layer_1" xmlns="http://www.w3.org/2000/svg" xmlns:xlink="http://www.w3.org/1999/xlink" x="0px" y="0px"
	 viewBox="0 0 50.1 50" style="enable-background:new 0 0 50.1 50;" xml:space="preserve">
<style type="text/css">
	.st0{fill:none;}
	.st1{fill:#FFFFFF;stroke:#000000;stroke-width:2;stroke-linejoin:round;}
	.st2{stroke:#000000;stroke-width:2.1;stroke-linecap:round;stroke-linejoin:round;}
	.st3{fill:#FFFFFF;stroke:#000000;stroke-miterlimit:10;}
</style>
<rect x="0.1" class="st0" width="50" height="50"/>
<path class="st1" d="M42,10V6.8c0-1-0.8-1.8-1.8-1.8h-5.3c-1,0-1.8,0.8-1.8,1.8V10"/>
<path class="st1" d="M17,10V6.8c0-1-0.8-1.8-1.8-1.8H9.9c-1,0-1.8,0.8-1.8,1.8V10"/>
<path class="st2" d="M45.4,12H4.7c-2,0-3.7,1.6-3.7,3.7v25.7c0,2,1.7,3.7,3.7,3.7h40.6c2,0,3.7-1.6,3.7-3.7V15.7
	C49,13.6,47.4,12,45.4,12z"/>
<rect x="7.1" y="27" class="st3" width="11" height="3"/>
<rect x="32" y="27" class="st3" width="11" height="3"/>
<rect x="36" y="23" class="st3" width="3" height="11"/>
</svg>
