<?xml version="1.0" encoding="UTF-8"?>
<svg id="Layer_2" data-name="Layer 2" xmlns="http://www.w3.org/2000/svg" viewBox="0 0 46.96 72.37">
  <g id="Layer_1-2" data-name="Layer 1-2">
    <path d="M41,4.95h-13.71V0h13.71v4.95ZM30.26,54.45c0-.65-.5-1-1.38-1-.44,0-.68.03-.83.05v2.01h.64c1.04,0,1.57-.42,1.57-1.06ZM46.96,14.25v51.67c0,3.55-2.9,6.45-6.45,6.45H5.4c-3.55,0-5.93-2.86-5.3-6.35L9.53,14.14c.63-3.49,4.06-6.35,7.6-6.35h23.38c3.55,0,6.45,2.9,6.45,6.45h0ZM16.63,59.08h-3.43v-6.98h-1.94v8.62h5.37s0-1.64,0-1.64ZM17.37,41.33l5.13-26.83h-3.65c-1.43,0-2.7,1.01-2.98,2.46l-3.96,20.8c-.31,1.64.76,3.22,2.4,3.53.19.03.57.06.57.06l2.48-.02h0ZM24.43,52.1h-1.94v4.95c0,1.54-.56,2.25-1.59,2.25s-1.56-.76-1.56-2.25v-4.95h-1.94v4.81c0,2.74,1.27,3.95,3.44,3.95s3.6-1.27,3.6-3.93v-4.83h-.01ZM32.52,58.18c0-1.1-.73-1.86-1.71-2.11v-.03c.97-.37,1.42-1.07,1.42-1.83s-.42-1.38-1.02-1.7c-.64-.37-1.37-.49-2.56-.49-.98,0-2.01.09-2.52.18v8.47c.43.06,1.15.13,2.11.13,1.71,0,2.76-.28,3.39-.78.54-.44.9-1.05.9-1.84h0ZM39.35,59.11h-3.54v-2.05h3.17v-1.59h-3.17v-1.79h3.36v-1.6h-5.31v8.62h5.49v-1.6h0ZM28.72,56.9h-.66v2.43c.19.03.42.03.75.03.88,0,1.66-.34,1.66-1.25,0-.86-.78-1.2-1.75-1.2h0Z" stroke-width="0"/>
  </g>
</svg>