<?xml version="1.0" encoding="UTF-8"?>
<svg id="Layer_1" data-name="Layer 1" xmlns="http://www.w3.org/2000/svg" viewBox="0 0 49.65 49.65">
  <path d="M24.83,0C11.14,0,0,11.14,0,24.83s11.14,24.83,24.83,24.83,24.83-11.14,24.83-24.83S38.51,0,24.83,0ZM31.63,35.3c-1.23,1.4-2.83,2.26-4.79,2.59v3.32c0,.18-.06.32-.17.44-.11.11-.25.17-.43.17h-2.5c-.16,0-.3-.06-.42-.18s-.17-.26-.17-.43v-3.32c-.82-.11-1.6-.31-2.36-.59-.76-.28-1.39-.56-1.88-.84-.49-.28-.95-.59-1.37-.91-.42-.32-.71-.56-.86-.71-.15-.15-.26-.27-.32-.34-.21-.26-.22-.52-.04-.78l1.91-2.56c.09-.13.23-.2.43-.23.18-.03.33.03.44.17l.04.04c1.4,1.25,2.9,2.04,4.5,2.37.46.1.91.15,1.37.15,1,0,1.88-.27,2.64-.81s1.14-1.31,1.14-2.31c0-.35-.09-.69-.28-1.01-.19-.31-.39-.58-.62-.8-.23-.22-.59-.45-1.08-.71-.49-.26-.9-.46-1.22-.61-.32-.15-.81-.35-1.48-.62-.48-.2-.86-.36-1.14-.47-.28-.11-.66-.28-1.14-.5-.48-.22-.87-.42-1.16-.59-.29-.17-.64-.4-1.05-.67-.41-.28-.74-.55-.99-.81-.25-.26-.52-.57-.81-.93-.28-.36-.5-.73-.66-1.1s-.28-.79-.39-1.26c-.1-.47-.16-.96-.16-1.48,0-1.74.6-3.27,1.82-4.59,1.21-1.32,2.78-2.16,4.73-2.54v-3.41c0-.16.06-.31.17-.43.12-.12.26-.18.42-.18h2.5c.17,0,.31.06.43.17.11.11.17.26.17.44v3.34c.7.08,1.39.22,2.05.44.66.22,1.2.43,1.61.64.41.21.81.44,1.18.71.37.27.61.45.72.55.11.1.2.19.28.26.21.23.24.47.09.72l-1.5,2.77c-.1.19-.24.29-.43.3-.17.04-.34,0-.5-.13-.04-.04-.13-.11-.27-.23-.14-.11-.38-.28-.72-.5-.34-.22-.7-.42-1.08-.61-.38-.18-.84-.35-1.38-.49-.54-.15-1.06-.22-1.58-.22-1.17,0-2.13.27-2.87.81-.74.54-1.11,1.24-1.11,2.1,0,.33.05.63.16.91s.29.54.55.78c.26.25.5.46.73.63.23.17.57.37,1.04.59.46.22.84.39,1.12.51.28.12.72.29,1.3.52.65.25,1.15.45,1.5.6.35.15.82.36,1.41.66.59.3,1.06.57,1.4.81.34.24.72.56,1.15.95.43.39.75.79.98,1.2.23.41.42.89.58,1.45.16.56.24,1.15.24,1.78,0,1.93-.61,3.6-1.84,5Z" stroke-width="0"/>
</svg>