<?xml version="1.0" encoding="UTF-8"?>
<svg id="Layer_1" data-name="Layer 1" xmlns="http://www.w3.org/2000/svg" viewBox="0 0 1101.57 286.64">
  <g isolation="isolate">
    <text transform="translate(363.38 142.53)" fill="#c81b1b" font-family="OpenSans-Bold, &apos;Open Sans&apos;" font-size="164.07" font-weight="700" isolation="isolate" stroke="#fff" stroke-miterlimit="10" stroke-width="2"><tspan x="0" y="0">OIL TECH</tspan></text>
  </g>
  <g isolation="isolate">
    <text transform="translate(449.01 260.12)" fill="#1b1bc8" font-family="OpenSans-Semibold, &apos;Open Sans&apos;" font-size="90.43" font-weight="600" isolation="isolate" stroke="#fff" stroke-miterlimit="10" stroke-width="2"><tspan x="0" y="0">LUBE &amp; AUTO</tspan></text>
  </g>
  <path d="M106.16,80.95l-.03-.14c-.2-.36-.38-.74-.49-1.15l-19.7-14.58c2.88-11.5,1.13-23.75-4.84-34.01C68.79,9.9,42.15,2.85,21.63,15.32l39.34,29.03-20.04,28.83L1.48,43.98c-2.19,10.39-.67,21.28,4.29,30.69,11.43,21.7,37.75,29.94,58.79,18.39l22.39,16.55c3.2-5.8,7.04-11.3,10.79-16.71,2.03-2.93,4.04-5.92,6.3-8.66.77-.94,1.62-1.83,2.45-2.73-.16-.14-.29-.33-.32-.54h0Z" fill="#fff" stroke="#000" stroke-miterlimit="10"/>
  <path d="M237.31,101.09l.13-.03c.33-.21.68-.39,1.05-.51l12.77-19.15c10.9,2.22,22.29.05,31.62-6.01,19.27-12.5,24.7-37.85,12.11-56.61l-25.43,38.23-27.87-17.62L267.27,1.06c-9.82-1.62-19.95.28-28.54,5.34-19.81,11.68-26.35,36.78-14.61,56.07l-14.5,21.75c5.57,2.77,10.89,6.13,16.13,9.43,2.83,1.78,5.72,3.55,8.39,5.56.91.69,1.78,1.45,2.66,2.19.12-.16.3-.28.5-.33h0Z" fill="#fff" stroke="#000" stroke-miterlimit="10"/>
  <path d="M246.2,86.25l-15.01,6.94c-.71.33-1.56.16-2.11-.42-2.26-2.32-4.64-4.52-7.13-6.59-.62-.5-.86-1.33-.59-2.07l5.69-15.52c2.47-6.72-.98-14.16-7.69-16.63h0l-31.28-11.49c-6.72-2.47-14.16.98-16.63,7.69h0l-5.7,15.5c-.28.74-1,1.22-1.79,1.19-3.24-.04-6.48.1-9.7.41-.79.08-1.54-.33-1.87-1.05l-6.94-15.01c-3-6.49-10.7-9.33-17.2-6.32l-30.25,13.98c-6.49,3-9.33,10.7-6.32,17.2l6.94,15.01c.33.71.16,1.56-.42,2.11-2.32,2.26-4.52,4.64-6.59,7.13-.5.62-1.33.86-2.07.59l-15.52-5.69c-6.72-2.47-14.16.98-16.63,7.69h0l-11.49,31.28c-2.47,6.72.98,14.16,7.69,16.63h0l15.5,5.7c.74.28,1.22,1,1.19,1.79-.04,3.24.1,6.48.41,9.7.08.79-.33,1.54-1.05,1.87l-15.01,6.94c-6.49,3-9.33,10.7-6.32,17.2l13.98,30.25c3,6.49,10.7,9.33,17.2,6.32l15.01-6.94c.71-.33,1.56-.16,2.11.42,2.26,2.32,4.64,4.52,7.13,6.59.62.5.86,1.33.59,2.07l-5.69,15.52c-2.47,6.72.98,14.16,7.69,16.63h0l31.28,11.5c6.72,2.47,14.16-.98,16.63-7.69h0l5.7-15.5c.28-.74,1-1.22,1.79-1.19,3.24.04,6.48-.1,9.7-.41.79-.08,1.54.33,1.87,1.05l6.93,14.99c3,6.49,10.7,9.33,17.2,6.32h0l30.25-13.98c6.49-3,9.33-10.7,6.32-17.2h0l-6.94-15.01c-.33-.71-.16-1.56.42-2.11,2.32-2.26,4.52-4.64,6.59-7.13.5-.62,1.33-.86,2.07-.59l15.52,5.69c6.72,2.47,14.16-.98,16.63-7.69h0l11.5-31.29c2.47-6.72-.98-14.16-7.69-16.63h0l-15.5-5.7c-.74-.28-1.22-1-1.19-1.79.04-3.24-.1-6.48-.41-9.7-.08-.79.33-1.54,1.05-1.87l14.99-6.93c6.49-3,9.33-10.7,6.32-17.2l-13.98-30.25c-3-6.49-10.7-9.33-17.2-6.32h0ZM267.3,127.49c.43.93.03,2.03-.9,2.46l-15.01,6.94c-4.99,2.32-7.98,7.53-7.44,13.01.26,2.83.38,5.68.35,8.53-.1,5.52,3.3,10.49,8.48,12.39l15.5,5.7c.96.35,1.45,1.41,1.09,2.37l-11.5,31.24c-.35.96-1.41,1.45-2.37,1.09l-15.5-5.7c-5.18-1.9-10.99-.32-14.49,3.94-1.83,2.19-3.76,4.29-5.81,6.28-3.94,3.83-5.04,9.73-2.74,14.72l6.93,14.99c.43.93.03,2.03-.9,2.46l-30.21,13.96c-.93.43-2.03.03-2.46-.9l-6.94-15.01c-2.32-4.99-7.53-7.98-13.01-7.44-2.83.26-5.68.38-8.53.35-5.52-.1-10.49,3.3-12.39,8.48l-5.7,15.5c-.35.96-1.41,1.45-2.37,1.09l-31.24-11.5c-.96-.35-1.45-1.41-1.09-2.37l5.7-15.5c1.9-5.18.32-10.99-3.94-14.49-2.19-1.83-4.29-3.76-6.28-5.81-3.83-3.92-9.71-5.01-14.7-2.71l-15.01,6.94c-.93.43-2.03.03-2.46-.9l-13.98-30.25c-.43-.93-.03-2.03.9-2.46l15.01-6.94c4.99-2.32,7.98-7.53,7.44-13.01-.26-2.83-.38-5.68-.35-8.53.1-5.52-3.3-10.49-8.48-12.39l-15.5-5.7c-.96-.35-1.45-1.41-1.09-2.37l11.5-31.24c.35-.96,1.41-1.45,2.37-1.09l15.5,5.7c5.18,1.9,10.99.32,14.49-3.94,1.83-2.19,3.76-4.29,5.81-6.28,3.92-3.83,5.01-9.71,2.71-14.7l-6.94-15.01c-.43-.93-.03-2.03.9-2.46l30.25-13.98c.93-.43,2.03-.03,2.46.9l6.94,15.01c2.32,4.99,7.53,7.98,13.01,7.44,2.83-.26,5.68-.38,8.53-.35,5.52.1,10.49-3.3,12.39-8.48l5.7-15.5c.35-.96,1.41-1.45,2.37-1.09l31.28,11.5c.96.35,1.45,1.41,1.09,2.37l-5.7,15.5c-1.9,5.18-.32,10.99,3.94,14.49,2.19,1.83,4.29,3.76,6.28,5.81,3.83,3.94,9.73,5.04,14.72,2.74l14.96-6.91c.93-.43,2.03-.03,2.46.9l13.96,30.2h0Z" fill="#fff" stroke="#000" stroke-miterlimit="10"/>
  <path d="M151.33,85.62c-39.43,6.45-66.17,43.65-59.72,83.08,6.45,39.43,43.65,66.17,83.08,59.72,39.43-6.45,66.17-43.65,59.72-83.08-6.45-39.43-43.65-66.17-83.08-59.72ZM171.9,211.29c-29.97,4.9-58.25-15.42-63.15-45.39-4.9-29.97,15.42-58.25,45.39-63.15,29.97-4.9,58.25,15.42,63.15,45.39,4.9,29.97-15.42,58.25-45.39,63.15h0Z" fill="#fff" stroke="#000" stroke-miterlimit="10"/>
  <circle cx="143.96" cy="185.48" r="9.7" fill="#fff" stroke="#000" stroke-miterlimit="10"/>
  <circle cx="192.47" cy="179.18" r="9.28" fill="#fff" stroke="#000" stroke-miterlimit="10"/>
  <rect x="142.6" y="153.08" width="46.8" height="7.73" transform="translate(-60.94 183.15) rotate(-49.98)" fill="#fff" stroke="#000" stroke-miterlimit="10" stroke-width="1"/>
  <rect x="161.31" y="133.67" width="7.73" height="46.8" transform="translate(-61.33 182.56) rotate(-49.98)" fill="#fff" stroke="#000" stroke-miterlimit="10" stroke-width="1"/>
  <path d="M181.04,119.85l18.27,14.35-9.67,13.4c-.17-1.33-.55-3.13-1.48-5.1-1.5-3.17-3.65-5.16-4.95-6.18-1.11-.9-3.33-2.45-6.56-3.15-2.64-.57-4.87-.33-6.2-.08,3.53-4.41,7.06-8.84,10.59-13.25h0Z" fill="#fff" stroke="#000" stroke-miterlimit="10"/>
  <circle cx="186.43" cy="132.13" r="1.69" fill="#fff" stroke="#000" stroke-miterlimit="10"/>
  <line x1="183.74" y1="118.12" x2="200.6" y2="131.88" fill="none" stroke="#000" stroke-miterlimit="10"/>
  <line x1="182.05" y1="120.15" x2="199.08" y2="133.68" fill="none" stroke="#000" stroke-miterlimit="10"/>
  <circle cx="140.25" cy="138.56" r="1.69" fill="#fff" stroke="#000" stroke-miterlimit="10"/>
  <path d="M125.53,140.37l14.15-18.42,13.5,9.52c-1.32.18-3.13.59-5.08,1.54-3.17,1.54-5.12,3.72-6.12,5.02-.89,1.12-2.41,3.36-3.08,6.59-.54,2.65-.28,4.87-.02,6.2-4.46-3.48-8.91-6.96-13.37-10.45h0Z" fill="#fff" stroke="#000" stroke-miterlimit="10"/>
  <circle cx="137.75" cy="134.84" r="1.69" fill="#fff" stroke="#000" stroke-miterlimit="10"/>
  <line x1="123.77" y1="137.69" x2="137.34" y2="120.68" fill="none" stroke="#000" stroke-miterlimit="10"/>
  <line x1="125.81" y1="139.36" x2="139.16" y2="122.17" fill="none" stroke="#000" stroke-miterlimit="10"/>
</svg>